<mxfile host="Electron" agent="Mozilla/5.0 (Macintosh; Intel Mac OS X 10_15_7) AppleWebKit/537.36 (KHTML, like Gecko) draw.io/26.1.1 Chrome/132.0.6834.210 Electron/34.3.3 Safari/537.36" version="26.1.1">
  <diagram name="Page-1" id="3KSMp_RYxV7NYdq-AQxZ">
    <mxGraphModel dx="1468" dy="951" grid="1" gridSize="10" guides="1" tooltips="1" connect="1" arrows="1" fold="1" page="1" pageScale="1" pageWidth="827" pageHeight="1169" math="0" shadow="0">
      <root>
        <mxCell id="0" />
        <mxCell id="1" parent="0" />
        <mxCell id="Davz0x5oCwp0Jdmc8-Mb-1" value="&lt;h1 style=&quot;margin-top: 0px;&quot;&gt;&lt;font style=&quot;font-size: 29px;&quot;&gt;DATA FLOW DIAGRAM&lt;/font&gt;&lt;/h1&gt;" style="text;html=1;whiteSpace=wrap;overflow=hidden;rounded=0;" vertex="1" parent="1">
          <mxGeometry x="30" y="30" width="370" height="40" as="geometry" />
        </mxCell>
        <mxCell id="Davz0x5oCwp0Jdmc8-Mb-2" value="" style="rounded=0;whiteSpace=wrap;html=1;fillColor=none;gradientColor=none;dashed=1;" vertex="1" parent="1">
          <mxGeometry x="40" y="170" width="180" height="600" as="geometry" />
        </mxCell>
        <mxCell id="Davz0x5oCwp0Jdmc8-Mb-4" value="&lt;b&gt;&lt;font style=&quot;font-size: 16px;&quot;&gt;Sources&lt;/font&gt;&lt;/b&gt;" style="rounded=0;whiteSpace=wrap;html=1;fillColor=default;" vertex="1" parent="1">
          <mxGeometry x="70" y="150" width="120" height="40" as="geometry" />
        </mxCell>
        <mxCell id="Davz0x5oCwp0Jdmc8-Mb-23" style="edgeStyle=orthogonalEdgeStyle;rounded=0;orthogonalLoop=1;jettySize=auto;html=1;entryX=0;entryY=0.25;entryDx=0;entryDy=0;" edge="1" parent="1" source="Davz0x5oCwp0Jdmc8-Mb-5" target="Davz0x5oCwp0Jdmc8-Mb-15">
          <mxGeometry relative="1" as="geometry" />
        </mxCell>
        <mxCell id="Davz0x5oCwp0Jdmc8-Mb-5" value="&lt;b&gt;CRM&lt;/b&gt;" style="image;aspect=fixed;html=1;points=[];align=center;fontSize=12;image=img/lib/azure2/general/Folder_Blank.svg;" vertex="1" parent="1">
          <mxGeometry x="90" y="304" width="69" height="56" as="geometry" />
        </mxCell>
        <mxCell id="Davz0x5oCwp0Jdmc8-Mb-28" style="edgeStyle=orthogonalEdgeStyle;rounded=0;orthogonalLoop=1;jettySize=auto;html=1;entryX=0;entryY=0.5;entryDx=0;entryDy=0;" edge="1" parent="1" source="Davz0x5oCwp0Jdmc8-Mb-6" target="Davz0x5oCwp0Jdmc8-Mb-25">
          <mxGeometry relative="1" as="geometry" />
        </mxCell>
        <mxCell id="Davz0x5oCwp0Jdmc8-Mb-29" style="edgeStyle=orthogonalEdgeStyle;rounded=0;orthogonalLoop=1;jettySize=auto;html=1;entryX=0;entryY=0.5;entryDx=0;entryDy=0;" edge="1" parent="1" source="Davz0x5oCwp0Jdmc8-Mb-6" target="Davz0x5oCwp0Jdmc8-Mb-27">
          <mxGeometry relative="1" as="geometry" />
        </mxCell>
        <mxCell id="Davz0x5oCwp0Jdmc8-Mb-6" value="&lt;b&gt;ERP&lt;/b&gt;&lt;div&gt;&lt;b&gt;&lt;br&gt;&lt;/b&gt;&lt;/div&gt;" style="image;aspect=fixed;html=1;points=[];align=center;fontSize=12;image=img/lib/azure2/general/Folder_Blank.svg;" vertex="1" parent="1">
          <mxGeometry x="90" y="520" width="70" height="56.81" as="geometry" />
        </mxCell>
        <mxCell id="Davz0x5oCwp0Jdmc8-Mb-7" value="" style="rounded=0;whiteSpace=wrap;html=1;fillColor=none;strokeColor=#FFCC99;" vertex="1" parent="1">
          <mxGeometry x="400" y="240" width="190" height="530" as="geometry" />
        </mxCell>
        <mxCell id="Davz0x5oCwp0Jdmc8-Mb-13" value="&lt;font style=&quot;font-size: 14px;&quot;&gt;&lt;b style=&quot;&quot;&gt;Bronze Layer&lt;/b&gt;&lt;/font&gt;" style="rounded=1;whiteSpace=wrap;html=1;fillColor=#fff2cc;strokeColor=#d6b656;dashed=1;" vertex="1" parent="1">
          <mxGeometry x="407" y="160" width="176" height="40" as="geometry" />
        </mxCell>
        <mxCell id="Davz0x5oCwp0Jdmc8-Mb-14" value="&lt;span style=&quot;font-size: 14px;&quot;&gt;&lt;b&gt;crm_sales_details&lt;/b&gt;&lt;/span&gt;" style="rounded=1;whiteSpace=wrap;html=1;fillColor=#fff2cc;strokeColor=#d6b656;" vertex="1" parent="1">
          <mxGeometry x="407" y="270" width="176" height="40" as="geometry" />
        </mxCell>
        <mxCell id="Davz0x5oCwp0Jdmc8-Mb-42" style="edgeStyle=orthogonalEdgeStyle;rounded=0;orthogonalLoop=1;jettySize=auto;html=1;" edge="1" parent="1" source="Davz0x5oCwp0Jdmc8-Mb-15" target="Davz0x5oCwp0Jdmc8-Mb-36">
          <mxGeometry relative="1" as="geometry" />
        </mxCell>
        <mxCell id="Davz0x5oCwp0Jdmc8-Mb-15" value="&lt;span style=&quot;font-size: 14px;&quot;&gt;&lt;b&gt;crm_cust_info&lt;/b&gt;&lt;/span&gt;" style="rounded=1;whiteSpace=wrap;html=1;fillColor=#fff2cc;strokeColor=#d6b656;" vertex="1" parent="1">
          <mxGeometry x="407" y="330" width="176" height="40" as="geometry" />
        </mxCell>
        <mxCell id="Davz0x5oCwp0Jdmc8-Mb-43" style="edgeStyle=orthogonalEdgeStyle;rounded=0;orthogonalLoop=1;jettySize=auto;html=1;entryX=0;entryY=0.5;entryDx=0;entryDy=0;" edge="1" parent="1" source="Davz0x5oCwp0Jdmc8-Mb-16" target="Davz0x5oCwp0Jdmc8-Mb-37">
          <mxGeometry relative="1" as="geometry" />
        </mxCell>
        <mxCell id="Davz0x5oCwp0Jdmc8-Mb-16" value="&lt;span style=&quot;font-size: 14px;&quot;&gt;&lt;b&gt;crm_prd_info&lt;/b&gt;&lt;/span&gt;" style="rounded=1;whiteSpace=wrap;html=1;fillColor=#fff2cc;strokeColor=#d6b656;" vertex="1" parent="1">
          <mxGeometry x="407" y="400" width="176" height="40" as="geometry" />
        </mxCell>
        <mxCell id="Davz0x5oCwp0Jdmc8-Mb-21" style="edgeStyle=orthogonalEdgeStyle;rounded=0;orthogonalLoop=1;jettySize=auto;html=1;entryX=0;entryY=0.25;entryDx=0;entryDy=0;" edge="1" parent="1" source="Davz0x5oCwp0Jdmc8-Mb-5" target="Davz0x5oCwp0Jdmc8-Mb-16">
          <mxGeometry relative="1" as="geometry">
            <Array as="points">
              <mxPoint x="260" y="332" />
              <mxPoint x="260" y="410" />
            </Array>
          </mxGeometry>
        </mxCell>
        <mxCell id="Davz0x5oCwp0Jdmc8-Mb-24" style="edgeStyle=orthogonalEdgeStyle;rounded=0;orthogonalLoop=1;jettySize=auto;html=1;entryX=0.006;entryY=0.11;entryDx=0;entryDy=0;entryPerimeter=0;" edge="1" parent="1" source="Davz0x5oCwp0Jdmc8-Mb-5" target="Davz0x5oCwp0Jdmc8-Mb-7">
          <mxGeometry relative="1" as="geometry" />
        </mxCell>
        <mxCell id="Davz0x5oCwp0Jdmc8-Mb-45" style="edgeStyle=orthogonalEdgeStyle;rounded=0;orthogonalLoop=1;jettySize=auto;html=1;entryX=0;entryY=0.5;entryDx=0;entryDy=0;" edge="1" parent="1" source="Davz0x5oCwp0Jdmc8-Mb-25" target="Davz0x5oCwp0Jdmc8-Mb-38">
          <mxGeometry relative="1" as="geometry" />
        </mxCell>
        <mxCell id="Davz0x5oCwp0Jdmc8-Mb-25" value="&lt;span style=&quot;font-size: 14px;&quot;&gt;&lt;b&gt;erp_cust_az12&lt;/b&gt;&lt;/span&gt;" style="rounded=1;whiteSpace=wrap;html=1;fillColor=#fff2cc;strokeColor=#d6b656;" vertex="1" parent="1">
          <mxGeometry x="407" y="490" width="176" height="40" as="geometry" />
        </mxCell>
        <mxCell id="Davz0x5oCwp0Jdmc8-Mb-26" value="&lt;span style=&quot;font-size: 14px;&quot;&gt;&lt;b&gt;erp_loc_a101&lt;/b&gt;&lt;/span&gt;" style="rounded=1;whiteSpace=wrap;html=1;fillColor=#fff2cc;strokeColor=#d6b656;" vertex="1" parent="1">
          <mxGeometry x="407" y="564.5" width="176" height="40" as="geometry" />
        </mxCell>
        <mxCell id="Davz0x5oCwp0Jdmc8-Mb-27" value="&lt;span style=&quot;font-size: 14px;&quot;&gt;&lt;b&gt;erp_px_cat_g1v2&lt;/b&gt;&lt;/span&gt;" style="rounded=1;whiteSpace=wrap;html=1;fillColor=#fff2cc;strokeColor=#d6b656;" vertex="1" parent="1">
          <mxGeometry x="407" y="630" width="176" height="40" as="geometry" />
        </mxCell>
        <mxCell id="Davz0x5oCwp0Jdmc8-Mb-30" style="edgeStyle=orthogonalEdgeStyle;rounded=0;orthogonalLoop=1;jettySize=auto;html=1;entryX=-0.01;entryY=0.661;entryDx=0;entryDy=0;entryPerimeter=0;" edge="1" parent="1" source="Davz0x5oCwp0Jdmc8-Mb-6" target="Davz0x5oCwp0Jdmc8-Mb-7">
          <mxGeometry relative="1" as="geometry">
            <Array as="points">
              <mxPoint x="220" y="548" />
              <mxPoint x="220" y="590" />
            </Array>
          </mxGeometry>
        </mxCell>
        <mxCell id="Davz0x5oCwp0Jdmc8-Mb-33" value="" style="rounded=0;whiteSpace=wrap;html=1;fillColor=none;strokeColor=#CCCCCC;fontStyle=1" vertex="1" parent="1">
          <mxGeometry x="760" y="240" width="190" height="530" as="geometry" />
        </mxCell>
        <mxCell id="Davz0x5oCwp0Jdmc8-Mb-34" value="&lt;span style=&quot;font-size: 14px;&quot;&gt;&lt;b&gt;Silver Layer&lt;/b&gt;&lt;/span&gt;" style="rounded=1;whiteSpace=wrap;html=1;fillColor=#f5f5f5;strokeColor=#666666;dashed=1;fontColor=#333333;" vertex="1" parent="1">
          <mxGeometry x="767" y="160" width="176" height="40" as="geometry" />
        </mxCell>
        <mxCell id="Davz0x5oCwp0Jdmc8-Mb-35" value="&lt;span style=&quot;font-size: 14px;&quot;&gt;&lt;b&gt;crm_sales_details&lt;/b&gt;&lt;/span&gt;" style="rounded=1;whiteSpace=wrap;html=1;fillColor=#f5f5f5;strokeColor=#666666;fontColor=#333333;" vertex="1" parent="1">
          <mxGeometry x="767" y="270" width="176" height="40" as="geometry" />
        </mxCell>
        <mxCell id="Davz0x5oCwp0Jdmc8-Mb-36" value="&lt;span style=&quot;font-size: 14px;&quot;&gt;&lt;b&gt;crm_cust_info&lt;/b&gt;&lt;/span&gt;" style="rounded=1;whiteSpace=wrap;html=1;fillColor=#f5f5f5;strokeColor=#666666;fontColor=#333333;" vertex="1" parent="1">
          <mxGeometry x="767" y="330" width="176" height="40" as="geometry" />
        </mxCell>
        <mxCell id="Davz0x5oCwp0Jdmc8-Mb-37" value="&lt;span style=&quot;font-size: 14px;&quot;&gt;&lt;b&gt;crm_prd_info&lt;/b&gt;&lt;/span&gt;" style="rounded=1;whiteSpace=wrap;html=1;fillColor=#f5f5f5;strokeColor=#666666;fontColor=#333333;" vertex="1" parent="1">
          <mxGeometry x="767" y="400" width="176" height="40" as="geometry" />
        </mxCell>
        <mxCell id="Davz0x5oCwp0Jdmc8-Mb-38" value="&lt;span style=&quot;font-size: 14px;&quot;&gt;&lt;b&gt;erp_cust_az12&lt;/b&gt;&lt;/span&gt;" style="rounded=1;whiteSpace=wrap;html=1;fillColor=#f5f5f5;strokeColor=#666666;fontColor=#333333;" vertex="1" parent="1">
          <mxGeometry x="767" y="490" width="176" height="40" as="geometry" />
        </mxCell>
        <mxCell id="Davz0x5oCwp0Jdmc8-Mb-39" value="&lt;span style=&quot;font-size: 14px;&quot;&gt;&lt;b&gt;erp_loc_a101&lt;/b&gt;&lt;/span&gt;" style="rounded=1;whiteSpace=wrap;html=1;fillColor=#f5f5f5;strokeColor=#666666;fontColor=#333333;" vertex="1" parent="1">
          <mxGeometry x="767" y="564.5" width="176" height="40" as="geometry" />
        </mxCell>
        <mxCell id="Davz0x5oCwp0Jdmc8-Mb-40" value="&lt;span style=&quot;font-size: 14px;&quot;&gt;&lt;b&gt;erp_px_cat_g1v2&lt;/b&gt;&lt;/span&gt;" style="rounded=1;whiteSpace=wrap;html=1;fillColor=#f5f5f5;strokeColor=#666666;fontColor=#333333;" vertex="1" parent="1">
          <mxGeometry x="767" y="630" width="176" height="40" as="geometry" />
        </mxCell>
        <mxCell id="Davz0x5oCwp0Jdmc8-Mb-41" style="edgeStyle=orthogonalEdgeStyle;rounded=0;orthogonalLoop=1;jettySize=auto;html=1;entryX=0.019;entryY=0.095;entryDx=0;entryDy=0;entryPerimeter=0;" edge="1" parent="1" source="Davz0x5oCwp0Jdmc8-Mb-14" target="Davz0x5oCwp0Jdmc8-Mb-33">
          <mxGeometry relative="1" as="geometry" />
        </mxCell>
        <mxCell id="Davz0x5oCwp0Jdmc8-Mb-46" style="edgeStyle=orthogonalEdgeStyle;rounded=0;orthogonalLoop=1;jettySize=auto;html=1;entryX=0.011;entryY=0.65;entryDx=0;entryDy=0;entryPerimeter=0;" edge="1" parent="1" source="Davz0x5oCwp0Jdmc8-Mb-26" target="Davz0x5oCwp0Jdmc8-Mb-33">
          <mxGeometry relative="1" as="geometry" />
        </mxCell>
        <mxCell id="Davz0x5oCwp0Jdmc8-Mb-47" style="edgeStyle=orthogonalEdgeStyle;rounded=0;orthogonalLoop=1;jettySize=auto;html=1;entryX=0.027;entryY=0.775;entryDx=0;entryDy=0;entryPerimeter=0;" edge="1" parent="1" source="Davz0x5oCwp0Jdmc8-Mb-27" target="Davz0x5oCwp0Jdmc8-Mb-33">
          <mxGeometry relative="1" as="geometry" />
        </mxCell>
        <mxCell id="Davz0x5oCwp0Jdmc8-Mb-48" value="&lt;span style=&quot;font-size: 14px;&quot;&gt;&lt;b&gt;Gold Layer&lt;/b&gt;&lt;/span&gt;" style="rounded=1;whiteSpace=wrap;html=1;fillColor=#fff2cc;strokeColor=#d6b656;dashed=1;gradientColor=#ffd966;" vertex="1" parent="1">
          <mxGeometry x="1065" y="160" width="176" height="40" as="geometry" />
        </mxCell>
        <mxCell id="Davz0x5oCwp0Jdmc8-Mb-49" value="&lt;span style=&quot;font-size: 14px;&quot;&gt;&lt;b&gt;fact_sales&lt;/b&gt;&lt;/span&gt;" style="rounded=1;whiteSpace=wrap;html=1;fillColor=#fff2cc;strokeColor=#d6b656;gradientColor=#ffd966;" vertex="1" parent="1">
          <mxGeometry x="1065" y="270" width="176" height="40" as="geometry" />
        </mxCell>
        <mxCell id="Davz0x5oCwp0Jdmc8-Mb-50" value="&lt;span style=&quot;font-size: 14px;&quot;&gt;&lt;b&gt;dim_customers&lt;/b&gt;&lt;/span&gt;" style="rounded=1;whiteSpace=wrap;html=1;fillColor=#fff2cc;strokeColor=#d6b656;gradientColor=#ffd966;" vertex="1" parent="1">
          <mxGeometry x="1065" y="390" width="176" height="40" as="geometry" />
        </mxCell>
        <mxCell id="Davz0x5oCwp0Jdmc8-Mb-51" value="&lt;span style=&quot;font-size: 14px;&quot;&gt;&lt;b&gt;dim_products&lt;/b&gt;&lt;/span&gt;" style="rounded=1;whiteSpace=wrap;html=1;fillColor=#fff2cc;strokeColor=#d6b656;gradientColor=#ffd966;" vertex="1" parent="1">
          <mxGeometry x="1065" y="524.5" width="176" height="40" as="geometry" />
        </mxCell>
        <mxCell id="Davz0x5oCwp0Jdmc8-Mb-55" value="" style="rounded=0;whiteSpace=wrap;html=1;fillColor=none;strokeColor=#d6b656;" vertex="1" parent="1">
          <mxGeometry x="1058" y="240" width="190" height="530" as="geometry" />
        </mxCell>
        <mxCell id="Davz0x5oCwp0Jdmc8-Mb-56" style="edgeStyle=orthogonalEdgeStyle;rounded=0;orthogonalLoop=1;jettySize=auto;html=1;entryX=0.011;entryY=0.094;entryDx=0;entryDy=0;entryPerimeter=0;jumpStyle=gap;" edge="1" parent="1" source="Davz0x5oCwp0Jdmc8-Mb-35" target="Davz0x5oCwp0Jdmc8-Mb-55">
          <mxGeometry relative="1" as="geometry" />
        </mxCell>
        <mxCell id="Davz0x5oCwp0Jdmc8-Mb-61" value="" style="endArrow=none;html=1;rounded=0;exitX=1;exitY=0.5;exitDx=0;exitDy=0;jumpStyle=gap;" edge="1" parent="1" source="Davz0x5oCwp0Jdmc8-Mb-38">
          <mxGeometry width="50" height="50" relative="1" as="geometry">
            <mxPoint x="1020" y="460" as="sourcePoint" />
            <mxPoint x="1070" y="410" as="targetPoint" />
          </mxGeometry>
        </mxCell>
        <mxCell id="Davz0x5oCwp0Jdmc8-Mb-62" value="" style="endArrow=none;html=1;rounded=0;exitX=1;exitY=0.5;exitDx=0;exitDy=0;jumpStyle=gap;" edge="1" parent="1" source="Davz0x5oCwp0Jdmc8-Mb-39">
          <mxGeometry width="50" height="50" relative="1" as="geometry">
            <mxPoint x="950" y="520" as="sourcePoint" />
            <mxPoint x="1060" y="420" as="targetPoint" />
          </mxGeometry>
        </mxCell>
        <mxCell id="Davz0x5oCwp0Jdmc8-Mb-63" value="" style="endArrow=none;html=1;rounded=0;exitX=0.063;exitY=0.566;exitDx=0;exitDy=0;exitPerimeter=0;jumpStyle=gap;" edge="1" parent="1" source="Davz0x5oCwp0Jdmc8-Mb-55">
          <mxGeometry width="50" height="50" relative="1" as="geometry">
            <mxPoint x="816" y="520" as="sourcePoint" />
            <mxPoint x="943" y="420" as="targetPoint" />
          </mxGeometry>
        </mxCell>
        <mxCell id="Davz0x5oCwp0Jdmc8-Mb-64" value="" style="endArrow=none;html=1;rounded=0;exitX=1;exitY=0.5;exitDx=0;exitDy=0;jumpStyle=gap;" edge="1" parent="1">
          <mxGeometry width="50" height="50" relative="1" as="geometry">
            <mxPoint x="943" y="640" as="sourcePoint" />
            <mxPoint x="1070" y="540" as="targetPoint" />
          </mxGeometry>
        </mxCell>
        <mxCell id="Davz0x5oCwp0Jdmc8-Mb-65" value="" style="endArrow=none;html=1;rounded=0;exitX=1;exitY=0.5;exitDx=0;exitDy=0;jumpStyle=gap;" edge="1" parent="1">
          <mxGeometry width="50" height="50" relative="1" as="geometry">
            <mxPoint x="938" y="360" as="sourcePoint" />
            <mxPoint x="1065" y="420" as="targetPoint" />
          </mxGeometry>
        </mxCell>
      </root>
    </mxGraphModel>
  </diagram>
</mxfile>
